<?xml version="1.0" standalone="no"?><!DOCTYPE svg PUBLIC "-//W3C//DTD SVG 1.1//EN" "http://www.w3.org/Graphics/SVG/1.1/DTD/svg11.dtd"><svg t="1563432998258" class="icon" viewBox="0 0 1024 1024" version="1.1" xmlns="http://www.w3.org/2000/svg" p-id="3448" xmlns:xlink="http://www.w3.org/1999/xlink" width="200" height="200"><defs><style type="text/css"></style></defs><path d="M511.9966925 0.2878550000004907c-282.5983124999997 0-511.68458249999975 229.0873724999998-511.68458249999975 511.68458249999975 0 282.57074999999986 229.0862699999999 511.68568499999964 511.68458249999975 511.68568499999964S1023.6812749999999 794.5442899999997 1023.6812749999999 511.97243749999996c0-282.5972099999997-229.0862699999999-511.68458249999975-511.68458249999975-511.68458249999975z m226.71589499999993 636.6716999999996s-16.19792999999998 44.192609999999966-45.91691999999996 83.88922499999995c0 0 53.094194999999935 18.04241249999999 48.610327499999975 64.94276249999994 0 0 1.7772299999999992 52.31362499999997-113.3921249999999 48.70403999999998 0 0-81.02272499999994-6.315119999999993-105.3130049999999-40.58412749999998h-21.410549999999983c-24.290279999999985 34.28223749999998-105.28544249999993 40.58412749999998-105.28544249999993 40.58412749999998-115.2112499999999 3.6095849999999983-113.40645749999996-48.70403999999998-113.40645749999996-48.70403999999998-4.497097499999997-46.90034999999997 48.59709749999997-64.94386499999999 48.59709749999997-64.94386499999999-29.69032499999999-39.69551249999997-45.890459999999976-83.88922499999995-45.890459999999976-83.88922499999995-72.01309499999998 116.36887499999986-64.80935999999996-16.23982499999999-64.80935999999996-16.23982499999999 13.51885499999999-78.47594999999997 70.19617499999995-129.8855249999999 70.19617499999995-129.8855249999999-8.106682499999998-71.2733174999999 21.59797499999999-83.88922499999995 21.59797499999999-83.88922499999995 6.233534999999994-220.48235999999997 195.73233749999986-216.63132749999988 199.70464499999983-216.52328249999994 3.985537499999998-0.10694249999999993 193.45677749999996-3.959077499999996 199.70464499999983 216.5089499999998 0 0 29.69032499999999 12.630239999999986 21.59797499999999 83.88922499999995 0 0 56.703779999999995 51.41067749999998 70.19617499999995 129.88772999999998 0.0022049999999999995 0.01322999999999999 7.192709999999997 132.61972499999982-64.78069499999995 16.25195249999999z" fill="#1196db" p-id="3449"></path></svg>