<?xml version="1.0" standalone="no"?><!DOCTYPE svg PUBLIC "-//W3C//DTD SVG 1.1//EN" "http://www.w3.org/Graphics/SVG/1.1/DTD/svg11.dtd"><svg t="1563428179792" class="icon" viewBox="0 0 1024 1024" version="1.1" xmlns="http://www.w3.org/2000/svg" p-id="1987" xmlns:xlink="http://www.w3.org/1999/xlink" width="200" height="200"><defs><style type="text/css"></style></defs><path d="M679.68 359.68a298.666667 298.666667 0 0 0-143.36 35.413333 270.08 270.08 0 0 0-103.68 96.853334 248.32 248.32 0 0 0-38.4 133.973333 243.626667 243.626667 0 0 0 10.666667 69.546667h-31.146667a546.56 546.56 0 0 1-98.56-12.373334L256 679.68l-117.333333 60.586667L170.666667 640Q36.693333 543.146667 36.266667 410.026667a248.32 248.32 0 0 1 45.226666-143.36 310.186667 310.186667 0 0 1 122.88-104.106667 384 384 0 0 1 170.666667-37.973333 389.12 389.12 0 0 1 153.6 31.146666 350.293333 350.293333 0 0 1 122.026667 85.333334 247.04 247.04 0 0 1 61.866666 120.32c-10.24-0.853333-21.333333-1.706667-32.853333-1.706667z m-416.853333-8.533333A44.8 44.8 0 0 0 293.973333 341.333333a39.68 39.68 0 0 0 12.373334-30.293333 38.826667 38.826667 0 0 0-12.373334-30.293333 42.666667 42.666667 0 0 0-31.146666-11.093334 57.6 57.6 0 0 0-34.56 11.093334 35.413333 35.413333 0 0 0-14.933334 29.013333 35.84 35.84 0 0 0 14.933334 31.573333 60.586667 60.586667 0 0 0 34.56 9.813334z m725.333333 269.653333a199.253333 199.253333 0 0 1-32.853333 107.52 352 352 0 0 1-85.333334 85.333333l26.026667 85.333334-93.44-49.92h-5.12a436.053333 436.053333 0 0 1-95.146667 15.786666 322.56 322.56 0 0 1-145.493333-32.853333 271.36 271.36 0 0 1-103.68-89.173333 216.32 216.32 0 0 1-37.973333-122.88 213.333333 213.333333 0 0 1 37.973333-122.453334 267.946667 267.946667 0 0 1 103.68-89.173333 322.56 322.56 0 0 1 145.493333-32.853333 311.04 311.04 0 0 1 139.946667 32.853333 276.48 276.48 0 0 1 105.386667 89.173333 206.506667 206.506667 0 0 1 40.106666 123.306667zM500.053333 268.373333a58.026667 58.026667 0 0 0-36.266666 11.093334 34.56 34.56 0 0 0-15.786667 30.293333 34.986667 34.986667 0 0 0 15.786667 30.293333 60.16 60.16 0 0 0 35.413333 11.093334 42.666667 42.666667 0 0 0 31.146667-9.813334 42.666667 42.666667 0 0 0 11.093333-30.293333 38.4 38.4 0 0 0-42.666667-42.666667z m108.8 311.04a42.666667 42.666667 0 0 0 30.293334-10.24 32 32 0 0 0 11.093333-23.466666 32.853333 32.853333 0 0 0-11.093333-23.466667 42.666667 42.666667 0 0 0-30.293334-10.24 32.426667 32.426667 0 0 0-22.613333 10.24 33.28 33.28 0 0 0-10.24 23.466667 32.853333 32.853333 0 0 0 10.24 23.466666 32.426667 32.426667 0 0 0 22.613333 10.24z m185.173334 0a42.666667 42.666667 0 0 0 30.293333-10.24 32 32 0 0 0 11.093333-23.466666 31.573333 31.573333 0 0 0-12.373333-23.466667 42.666667 42.666667 0 0 0-29.013333-10.24 31.573333 31.573333 0 0 0-22.613334 10.24 33.28 33.28 0 0 0-10.24 23.466667 32.853333 32.853333 0 0 0 10.24 23.466666 31.573333 31.573333 0 0 0 22.613334 10.24z" fill="#66BC54" p-id="1988"></path></svg>